Coordinates
version=1
nRows=13
nColumns=40
inDegrees=yes

Units are S.I. units (second, meters, Newtons, ...)
Angles are in degrees.

endheader
time	pelvis_tilt	pelvis_list	pelvis_rotation	pelvis_tx	pelvis_ty	pelvis_tz	hip_flexion_r	hip_adduction_r	hip_rotation_r	knee_angle_r	knee_angle_r_beta	ankle_angle_r	subtalar_angle_r	mtp_angle_r	hip_flexion_l	hip_adduction_l	hip_rotation_l	knee_angle_l	knee_angle_l_beta	ankle_angle_l	subtalar_angle_l	mtp_angle_l	lumbar_extension	lumbar_bending	lumbar_rotation	arm_flex_r	arm_add_r	arm_rot_r	elbow_flex_r	pro_sup_r	wrist_flex_r	wrist_dev_r	arm_flex_l	arm_add_l	arm_rot_l	elbow_flex_l	pro_sup_l	wrist_flex_l	wrist_dev_l
      6.45000000	     -4.58700067	     -3.59118036	     -1.33087500	      1.04764343	      0.93276498	      0.44961681	     30.93894828	     -5.93511411	     -4.36218410	     71.51779881	     71.51779881	      3.96209503	    -15.58929050	      0.78739917	     16.26283811	     -4.78754474	     -9.40105595	     20.38121143	     20.38121143	     10.32172746	    -11.75224941	     -2.31575723	     -9.12478947	      4.47878137	      0.47725895	      8.64939542	    -12.65447901	     -2.83938069	     63.98692511	     45.18634743	      0.00000000	      0.00000000	      7.72598895	    -12.28524303	      7.11095988	     36.71459779	     45.45138240	      0.00000000	      0.00000000
      6.46135714	     -4.32074890	     -3.78319877	     -1.61780644	      1.04654404	      0.93378017	      0.44969971	     31.95354859	     -5.73704114	     -4.27734869	     69.95967184	     69.95967184	      3.73567264	    -15.33905396	      0.79526140	     14.97221011	     -4.88934061	     -9.32981036	     19.71342191	     19.71342191	     10.63651240	    -12.08575675	     -2.28752982	     -9.55682073	      4.91223924	      0.97204454	      6.64745770	    -13.07282911	     -2.78447926	     61.10211420	     45.27725677	      0.00000000	      0.00000000	      9.91364064	    -12.57513022	      6.99685092	     37.75224499	     45.50380940	      0.00000000	      0.00000000
      6.47271429	     -4.10656501	     -3.88043056	     -1.91902748	      1.04534805	      0.93449572	      0.44990718	     32.91719232	     -5.59601028	     -4.15070630	     68.20972149	     68.20972149	      3.21526363	    -15.20263005	      0.16858614	     13.80173527	     -4.93538790	     -9.44221059	     19.13451524	     19.13451524	     10.71745725	    -12.35976407	     -2.99227270	     -9.82674815	      5.11945480	      0.70983494	      6.74072306	    -12.30720252	     -3.98358250	     53.54290900	     45.59412535	      0.00000000	      0.00000000	     11.66820607	    -13.49246017	      7.66232542	     38.81316010	     45.48704534	      0.00000000	      0.00000000
      6.48407143	     -3.82051715	     -4.04400729	     -2.22475180	      1.04422417	      0.93521653	      0.45009092	     33.64168411	     -5.35815312	     -4.08443140	     66.22364864	     66.22364864	      2.85547547	    -14.93349448	      0.40806111	     12.58385353	     -5.06911413	     -9.65849615	     18.64468069	     18.64468069	     11.13699267	    -12.28763386	     -3.13389550	    -10.34277346	      5.49406154	      1.28758199	      4.95445053	    -12.73079601	     -4.06186035	     50.73393055	     45.68865102	      0.00000000	      0.00000000	     13.67637866	    -13.82366306	      7.52181984	     40.31767957	     45.54398392	      0.00000000	      0.00000000
      6.49542857	     -3.68004807	     -4.12619858	     -2.50079704	      1.04307268	      0.93557890	      0.45032700	     34.39591915	     -5.22459425	     -4.08524462	     64.00463961	     64.00463961	      2.40743837	    -14.57564058	      0.43780090	     11.55784625	     -5.12935341	     -9.92298017	     18.17259805	     18.17259805	     11.36393289	    -12.21831542	     -3.75523936	    -10.53229967	      5.71234051	      0.79878242	      5.58793249	    -11.94795420	     -5.64202508	     42.71676210	     46.04943295	      0.00000000	      0.00000000	     14.94722969	    -14.99086602	      8.17155208	     42.23958267	     45.53957875	      0.00000000	      0.00000000
      6.50678571	     -3.49410670	     -4.19410582	     -2.79050094	      1.04199011	      0.93589733	      0.45055568	     34.93134044	     -5.09137166	     -4.13867399	     61.47062040	     61.47062040	      1.94242242	    -14.12934993	      0.58248540	     10.47835038	     -5.14157192	    -10.12280957	     17.69378922	     17.69378922	     11.68132915	    -12.25078884	     -4.03999412	    -10.88898437	      5.95910770	      0.77437909	      5.19627485	    -11.72332573	     -7.18911953	     37.63314985	     46.29908559	      0.00000000	      0.00000000	     16.27968862	    -15.82758415	      8.17726063	     44.45482233	     45.62446034	      0.00000000	      0.00000000
      6.51814286	     -3.37132027	     -4.22808916	     -3.09458764	      1.04092228	      0.93597380	      0.45081840	     35.40995965	     -4.99755843	     -4.26447286	     58.67520933	     58.67520933	      1.52739475	    -13.44197073	      0.86282759	      9.46916720	     -5.12026526	    -10.35462249	     17.22448230	     17.22448230	     12.08755140	    -12.17553266	     -4.16662134	    -11.20802882	      6.17011944	      1.25625305	      3.63057695	    -12.08081102	     -7.61907580	     35.13937480	     46.40487229	      0.00000000	      0.00000000	     18.06991010	    -16.16216342	      7.88848057	     46.00590884	     45.70006209	      0.00000000	      0.00000000
      6.52950000	     -3.31804122	     -4.24068389	     -3.37954880	      1.03992793	      0.93582360	      0.45112517	     35.75830659	     -4.92630930	     -4.50741663	     55.50431861	     55.50431861	      0.89485777	    -12.68239269	      0.30264613	      8.54055751	     -5.07012592	    -10.58813465	     16.74659072	     16.74659072	     12.33438130	    -12.20290148	     -4.65012514	    -11.35977362	      6.37839164	      0.87797133	      4.03060679	    -11.77166722	    -10.06718199	     29.05172146	     46.78846862	      0.00000000	      0.00000000	     18.96631635	    -17.22536123	      7.81496520	     48.50105896	     45.79642736	      0.00000000	      0.00000000
      6.54085714	     -3.47469859	     -4.11575511	     -3.67818138	      1.03885809	      0.93511298	      0.45150787	     36.30029668	     -4.91570325	     -4.69075692	     52.22704965	     52.22704965	      0.57594571	    -11.71948038	      0.70966724	      7.99008005	     -4.90987593	    -10.82116729	     16.54786369	     16.54786369	     12.78755990	    -12.22593786	     -4.79702377	    -11.28629602	      6.47068129	      0.57896141	      2.51461110	    -12.05643772	    -10.20977120	     28.23191585	     46.81978072	      0.00000000	      0.00000000	     20.36740549	    -18.02094486	      7.43496127	     49.26631690	     45.85355339	      0.00000000	      0.00000000
      6.55221429	     -3.34033192	     -4.10425454	     -4.02989556	      1.03826926	      0.93501031	      0.45195187	     36.15825706	     -4.87850763	     -5.20754955	     48.43514358	     48.43514358	      0.32376995	     -9.97519146	      0.47221523	      6.75243808	     -4.79169814	    -11.15892383	     15.73179868	     15.73179868	     13.09294181	    -11.96924938	     -4.96376146	    -11.67377111	      6.62953466	      1.77355147	      0.72950424	    -12.61610114	    -10.89796278	     25.63180678	     46.96983073	      0.00000000	      0.00000000	     22.02841558	    -17.80843908	      6.98786366	     51.99769769	     45.95272226	      0.00000000	      0.00000000
      6.56357143	     -3.40229934	     -4.02968245	     -4.32656907	      1.03773263	      0.93435557	      0.45251946	     36.00606094	     -4.80207198	     -5.76810239	     44.27938495	     44.27938495	     -0.53153344	     -8.62932768	     -1.47953179	      5.85448731	     -4.63216842	    -11.41329603	     15.10474811	     15.10474811	     13.14064321	    -12.06322011	     -5.85419266	    -11.70236887	      6.72594692	      1.14614412	      0.94427487	    -12.57571684	    -14.02762341	     21.31301256	     47.44379375	      0.00000000	      0.00000000	     21.96186404	    -19.05965372	      6.14693422	     56.04147988	     46.13131545	      0.00000000	      0.00000000
      6.57492857	     -3.50553607	     -3.94916732	     -4.63412125	      1.03739540	      0.93353900	      0.45324542	     35.78772861	     -4.68589061	     -6.42116590	     40.12334876	     40.12334876	     -0.56117739	     -6.60454709	     -1.19197481	      5.01120430	     -4.48476220	    -11.73713428	     14.57010424	     14.57010424	     13.55205198	    -11.86845175	     -6.01998614	    -11.66322446	      6.82324527	      1.49063105	     -0.77625908	    -13.03943892	    -14.46112597	     20.36357494	     47.51664165	      0.00000000	      0.00000000	     23.32073630	    -19.27788487	      5.61845892	     57.43316624	     46.21219118	      0.00000000	      0.00000000
      6.58628571	     -3.67444380	     -3.84660819	     -4.94715114	      1.03729078	      0.93244918	      0.45416855	     35.45715076	     -4.48291608	     -7.06621876	     35.84992890	     35.84992890	     -0.49627076	     -4.55474848	     -0.79740036	      4.20385012	     -4.32291369	    -12.06407393	     13.99212500	     13.99212500	     13.93335021	    -11.64248005	     -6.24940987	    -11.49414897	      6.88823747	      1.72880872	     -2.41200121	    -13.39079170	    -14.80671210	     19.54361741	     47.57706038	      0.00000000	      0.00000000	     24.49621474	    -19.57935678	      5.13323680	     58.99581022	     46.28692151	      0.00000000	      0.00000000
